<svg width="16" height="11" xmlns="http://www.w3.org/2000/svg"><path d="M13.376 4.62c.847-.07 1.422-.455 1.643-.978-.306.188-1.254.393-1.778.198a6.462 6.462 0 00-.083-.346C12.758 2.028 11.392.847 9.96.99c.116-.047.233-.09.35-.13.158-.056 1.083-.206.937-.533C11.125.04 9.994.544 9.782.61c.28-.106.745-.287.795-.61-.43.059-.853.262-1.18.558A.81.81 0 009.625.11c-1.148.734-1.818 2.212-2.36 3.646-.427-.413-.805-.738-1.143-.919-.95-.51-2.087-1.041-3.87-1.703-.055.59.291 1.375 1.29 1.897-.216-.03-.612.035-.929.111.13.676.55 1.233 1.69 1.502-.521.035-.79.153-1.034.409.237.47.816 1.023 1.857.91-1.158.499-.472 1.423.47 1.285-1.607 1.66-4.14 1.538-5.595.15 3.798 5.175 12.055 3.06 13.285-1.925.922.008 1.464-.32 1.8-.68-.531.09-1.301-.003-1.71-.173z"/></svg>