<svg width="99" height="107" fill="none" xmlns="http://www.w3.org/2000/svg"><mask id="a" fill="#fff"><path d="M13.903 23.452C6.571 23.452.607 29.417.607 36.748c0 6.8 5.132 12.421 11.726 13.2V60.2a1.57 1.57 0 003.14 0V49.95c6.595-.78 11.727-6.4 11.727-13.2 0-7.332-5.965-13.297-13.297-13.297zm0 23.452c-5.6 0-10.155-4.556-10.155-10.156 0-5.6 4.555-10.155 10.155-10.155S24.06 31.149 24.06 36.748c0 5.6-4.556 10.156-10.156 10.156z"/><path d="M13.903 30.153a6.604 6.604 0 00-6.596 6.596 6.604 6.604 0 006.596 6.596 6.604 6.604 0 006.596-6.596 6.604 6.604 0 00-6.596-6.596zm0 10.05a3.459 3.459 0 01-3.455-3.454 3.459 3.459 0 013.455-3.455 3.459 3.459 0 013.455 3.455 3.459 3.459 0 01-3.455 3.455zm82.92-2.513h-.942V10.785c0-4.56-3.71-8.271-8.271-8.271h-3.455V1.57A1.57 1.57 0 0082.585 0h-4.189a4.088 4.088 0 00-4.083 4.083 4.088 4.088 0 004.083 4.083h4.188a1.57 1.57 0 001.57-1.57v-.943h3.456a5.136 5.136 0 015.13 5.13V37.69h-.942a1.57 1.57 0 00-1.571 1.571v2.513c0 6.985-5.683 12.668-12.668 12.668H57.457c-6.985 0-12.668-5.683-12.668-12.668V39.26a1.57 1.57 0 00-1.57-1.57h-.943V10.784a5.136 5.136 0 015.13-5.13h3.455v.942c0 .867.703 1.57 1.57 1.57h4.188a4.088 4.088 0 004.084-4.083A4.088 4.088 0 0056.618 0H52.43a1.57 1.57 0 00-1.57 1.57v.943h-3.455c-4.56 0-8.27 3.71-8.27 8.27v26.908h-.943a1.57 1.57 0 00-1.57 1.57v2.513c0 11.488 9.346 20.835 20.834 20.835h5.968v7.642c0 .868.703 1.57 1.57 1.57h.942v8.481c0 12.99-10.567 23.557-23.556 23.557h-3.35c-12.99 0-23.557-10.567-23.557-23.557V67.808a1.57 1.57 0 00-3.141 0v12.494C12.333 95.023 24.309 107 39.03 107h3.35c14.721 0 26.698-11.977 26.698-26.698v-8.48h.942a1.57 1.57 0 001.57-1.57v-7.643h5.968c11.488 0 20.835-9.347 20.835-20.835V39.26c0-.867-.704-1.57-1.571-1.57zM81.013 5.026h-2.617a.943.943 0 010-1.884h2.618v1.884zm-27.01-1.885h2.617a.943.943 0 010 1.884h-2.617V3.141zm41.25 38.633c0 9.756-7.937 17.694-17.693 17.694h-7.54a1.57 1.57 0 00-1.57 1.57v7.643h-1.885v-7.643a1.57 1.57 0 00-1.57-1.57h-7.539c-9.756 0-17.694-7.938-17.694-17.694v-.942h1.885v.942c0 8.717 7.092 15.81 15.81 15.81h20.101c8.718 0 15.81-7.093 15.81-15.81v-.942h1.884v.942z"/><path d="M67.508 25.127c-7.1 0-12.878 5.777-12.878 12.878 0 6.49 4.814 10.365 12.878 10.365s12.877-3.875 12.877-10.365c0-7.1-5.776-12.878-12.877-12.878zm0 20.102c-3.636 0-9.737-.939-9.737-7.224 0-5.369 4.368-9.737 9.737-9.737s9.737 4.368 9.737 9.737c0 6.285-6.1 7.224-9.737 7.224zm-6.282-32.665c-3.21 0-5.34 3.97-5.34 6.596a5.345 5.345 0 005.34 5.34 5.345 5.345 0 005.34-5.34c0-2.626-2.13-6.596-5.34-6.596zm0 8.794a2.201 2.201 0 01-2.199-2.198c0-1.486 1.254-3.455 2.2-3.455.944 0 2.198 1.97 2.198 3.455a2.202 2.202 0 01-2.199 2.198zm12.564-8.794c-3.21 0-5.34 3.97-5.34 6.596a5.345 5.345 0 005.34 5.34 5.345 5.345 0 005.34-5.34c0-2.626-2.13-6.596-5.34-6.596zm0 8.794a2.201 2.201 0 01-2.2-2.198c0-1.486 1.254-3.455 2.2-3.455.945 0 2.198 1.97 2.198 3.455a2.201 2.201 0 01-2.198 2.198zm10.05-1.256c-3.21 0-5.339 3.97-5.339 6.596a5.345 5.345 0 005.34 5.34 5.345 5.345 0 005.34-5.34c0-2.626-2.13-6.596-5.34-6.596zm0 8.794a2.201 2.201 0 01-2.198-2.198c0-1.486 1.253-3.455 2.199-3.455.945 0 2.198 1.97 2.198 3.455a2.201 2.201 0 01-2.198 2.198zm-32.665-8.794c-3.21 0-5.34 3.97-5.34 6.596a5.345 5.345 0 005.34 5.34 5.345 5.345 0 005.34-5.34c0-2.626-2.13-6.596-5.34-6.596zm0 8.794a2.201 2.201 0 01-2.198-2.198c0-1.486 1.253-3.455 2.198-3.455.946 0 2.199 1.97 2.199 3.455a2.201 2.201 0 01-2.199 2.198z"/></mask><path d="M13.903 23.452C6.571 23.452.607 29.417.607 36.748c0 6.8 5.132 12.421 11.726 13.2V60.2a1.57 1.57 0 003.14 0V49.95c6.595-.78 11.727-6.4 11.727-13.2 0-7.332-5.965-13.297-13.297-13.297zm0 23.452c-5.6 0-10.155-4.556-10.155-10.156 0-5.6 4.555-10.155 10.155-10.155S24.06 31.149 24.06 36.748c0 5.6-4.556 10.156-10.156 10.156z" fill="#A07B50"/><path d="M13.903 30.153a6.604 6.604 0 00-6.596 6.596 6.604 6.604 0 006.596 6.596 6.604 6.604 0 006.596-6.596 6.604 6.604 0 00-6.596-6.596zm0 10.05a3.459 3.459 0 01-3.455-3.454 3.459 3.459 0 013.455-3.455 3.459 3.459 0 013.455 3.455 3.459 3.459 0 01-3.455 3.455zm82.92-2.513h-.942V10.785c0-4.56-3.71-8.271-8.271-8.271h-3.455V1.57A1.57 1.57 0 0082.585 0h-4.189a4.088 4.088 0 00-4.083 4.083 4.088 4.088 0 004.083 4.083h4.188a1.57 1.57 0 001.57-1.57v-.943h3.456a5.136 5.136 0 015.13 5.13V37.69h-.942a1.57 1.57 0 00-1.571 1.571v2.513c0 6.985-5.683 12.668-12.668 12.668H57.457c-6.985 0-12.668-5.683-12.668-12.668V39.26a1.57 1.57 0 00-1.57-1.57h-.943V10.784a5.136 5.136 0 015.13-5.13h3.455v.942c0 .867.703 1.57 1.57 1.57h4.188a4.088 4.088 0 004.084-4.083A4.088 4.088 0 0056.618 0H52.43a1.57 1.57 0 00-1.57 1.57v.943h-3.455c-4.56 0-8.27 3.71-8.27 8.27v26.908h-.943a1.57 1.57 0 00-1.57 1.57v2.513c0 11.488 9.346 20.835 20.834 20.835h5.968v7.642c0 .868.703 1.57 1.57 1.57h.942v8.481c0 12.99-10.567 23.557-23.556 23.557h-3.35c-12.99 0-23.557-10.567-23.557-23.557V67.808a1.57 1.57 0 00-3.141 0v12.494C12.333 95.023 24.309 107 39.03 107h3.35c14.721 0 26.698-11.977 26.698-26.698v-8.48h.942a1.57 1.57 0 001.57-1.57v-7.643h5.968c11.488 0 20.835-9.347 20.835-20.835V39.26c0-.867-.704-1.57-1.571-1.57zM81.013 5.026h-2.617a.943.943 0 010-1.884h2.618v1.884zm-27.01-1.885h2.617a.943.943 0 010 1.884h-2.617V3.141zm41.25 38.633c0 9.756-7.937 17.694-17.693 17.694h-7.54a1.57 1.57 0 00-1.57 1.57v7.643h-1.885v-7.643a1.57 1.57 0 00-1.57-1.57h-7.539c-9.756 0-17.694-7.938-17.694-17.694v-.942h1.885v.942c0 8.717 7.092 15.81 15.81 15.81h20.101c8.718 0 15.81-7.093 15.81-15.81v-.942h1.884v.942z" fill="#A07B50"/><path d="M67.508 25.127c-7.1 0-12.878 5.777-12.878 12.878 0 6.49 4.814 10.365 12.878 10.365s12.877-3.875 12.877-10.365c0-7.1-5.776-12.878-12.877-12.878zm0 20.102c-3.636 0-9.737-.939-9.737-7.224 0-5.369 4.368-9.737 9.737-9.737s9.737 4.368 9.737 9.737c0 6.285-6.1 7.224-9.737 7.224zm-6.282-32.665c-3.21 0-5.34 3.97-5.34 6.596a5.345 5.345 0 005.34 5.34 5.345 5.345 0 005.34-5.34c0-2.626-2.13-6.596-5.34-6.596zm0 8.794a2.201 2.201 0 01-2.199-2.198c0-1.486 1.254-3.455 2.2-3.455.944 0 2.198 1.97 2.198 3.455a2.202 2.202 0 01-2.199 2.198zm12.564-8.794c-3.21 0-5.34 3.97-5.34 6.596a5.345 5.345 0 005.34 5.34 5.345 5.345 0 005.34-5.34c0-2.626-2.13-6.596-5.34-6.596zm0 8.794a2.201 2.201 0 01-2.2-2.198c0-1.486 1.254-3.455 2.2-3.455.945 0 2.198 1.97 2.198 3.455a2.201 2.201 0 01-2.198 2.198zm10.05-1.256c-3.21 0-5.339 3.97-5.339 6.596a5.345 5.345 0 005.34 5.34 5.345 5.345 0 005.34-5.34c0-2.626-2.13-6.596-5.34-6.596zm0 8.794a2.201 2.201 0 01-2.198-2.198c0-1.486 1.253-3.455 2.199-3.455.945 0 2.198 1.97 2.198 3.455a2.201 2.201 0 01-2.198 2.198zm-32.665-8.794c-3.21 0-5.34 3.97-5.34 6.596a5.345 5.345 0 005.34 5.34 5.345 5.345 0 005.34-5.34c0-2.626-2.13-6.596-5.34-6.596zm0 8.794a2.201 2.201 0 01-2.198-2.198c0-1.486 1.253-3.455 2.198-3.455.946 0 2.199 1.97 2.199 3.455a2.201 2.201 0 01-2.199 2.198z" fill="#A07B50"/><path d="M13.903 23.452C6.571 23.452.607 29.417.607 36.748c0 6.8 5.132 12.421 11.726 13.2V60.2a1.57 1.57 0 003.14 0V49.95c6.595-.78 11.727-6.4 11.727-13.2 0-7.332-5.965-13.297-13.297-13.297zm0 23.452c-5.6 0-10.155-4.556-10.155-10.156 0-5.6 4.555-10.155 10.155-10.155S24.06 31.149 24.06 36.748c0 5.6-4.556 10.156-10.156 10.156z" mask="url(#a)"/><path d="M13.903 30.153a6.604 6.604 0 00-6.596 6.596 6.604 6.604 0 006.596 6.596 6.604 6.604 0 006.596-6.596 6.604 6.604 0 00-6.596-6.596zm0 10.05a3.459 3.459 0 01-3.455-3.454 3.459 3.459 0 013.455-3.455 3.459 3.459 0 013.455 3.455 3.459 3.459 0 01-3.455 3.455zm82.92-2.513h-.942V10.785c0-4.56-3.71-8.271-8.271-8.271h-3.455V1.57A1.57 1.57 0 0082.585 0h-4.189a4.088 4.088 0 00-4.083 4.083 4.088 4.088 0 004.083 4.083h4.188a1.57 1.57 0 001.57-1.57v-.943h3.456a5.136 5.136 0 015.13 5.13V37.69h-.942a1.57 1.57 0 00-1.571 1.571v2.513c0 6.985-5.683 12.668-12.668 12.668H57.457c-6.985 0-12.668-5.683-12.668-12.668V39.26a1.57 1.57 0 00-1.57-1.57h-.943V10.784a5.136 5.136 0 015.13-5.13h3.455v.942c0 .867.703 1.57 1.57 1.57h4.188a4.088 4.088 0 004.084-4.083A4.088 4.088 0 0056.618 0H52.43a1.57 1.57 0 00-1.57 1.57v.943h-3.455c-4.56 0-8.27 3.71-8.27 8.27v26.908h-.943a1.57 1.57 0 00-1.57 1.57v2.513c0 11.488 9.346 20.835 20.834 20.835h5.968v7.642c0 .868.703 1.57 1.57 1.57h.942v8.481c0 12.99-10.567 23.557-23.556 23.557h-3.35c-12.99 0-23.557-10.567-23.557-23.557V67.808a1.57 1.57 0 00-3.141 0v12.494C12.333 95.023 24.309 107 39.03 107h3.35c14.721 0 26.698-11.977 26.698-26.698v-8.48h.942a1.57 1.57 0 001.57-1.57v-7.643h5.968c11.488 0 20.835-9.347 20.835-20.835V39.26c0-.867-.704-1.57-1.571-1.57zM81.013 5.026h-2.617a.943.943 0 010-1.884h2.618v1.884zm-27.01-1.885h2.617a.943.943 0 010 1.884h-2.617V3.141zm41.25 38.633c0 9.756-7.937 17.694-17.693 17.694h-7.54a1.57 1.57 0 00-1.57 1.57v7.643h-1.885v-7.643a1.57 1.57 0 00-1.57-1.57h-7.539c-9.756 0-17.694-7.938-17.694-17.694v-.942h1.885v.942c0 8.717 7.092 15.81 15.81 15.81h20.101c8.718 0 15.81-7.093 15.81-15.81v-.942h1.884v.942z" mask="url(#a)"/><path d="M67.508 25.127c-7.1 0-12.878 5.777-12.878 12.878 0 6.49 4.814 10.365 12.878 10.365s12.877-3.875 12.877-10.365c0-7.1-5.776-12.878-12.877-12.878zm0 20.102c-3.636 0-9.737-.939-9.737-7.224 0-5.369 4.368-9.737 9.737-9.737s9.737 4.368 9.737 9.737c0 6.285-6.1 7.224-9.737 7.224zm-6.282-32.665c-3.21 0-5.34 3.97-5.34 6.596a5.345 5.345 0 005.34 5.34 5.345 5.345 0 005.34-5.34c0-2.626-2.13-6.596-5.34-6.596zm0 8.794a2.201 2.201 0 01-2.199-2.198c0-1.486 1.254-3.455 2.2-3.455.944 0 2.198 1.97 2.198 3.455a2.202 2.202 0 01-2.199 2.198zm12.564-8.794c-3.21 0-5.34 3.97-5.34 6.596a5.345 5.345 0 005.34 5.34 5.345 5.345 0 005.34-5.34c0-2.626-2.13-6.596-5.34-6.596zm0 8.794a2.201 2.201 0 01-2.2-2.198c0-1.486 1.254-3.455 2.2-3.455.945 0 2.198 1.97 2.198 3.455a2.201 2.201 0 01-2.198 2.198zm10.05-1.256c-3.21 0-5.339 3.97-5.339 6.596a5.345 5.345 0 005.34 5.34 5.345 5.345 0 005.34-5.34c0-2.626-2.13-6.596-5.34-6.596zm0 8.794a2.201 2.201 0 01-2.198-2.198c0-1.486 1.253-3.455 2.199-3.455.945 0 2.198 1.97 2.198 3.455a2.201 2.201 0 01-2.198 2.198zm-32.665-8.794c-3.21 0-5.34 3.97-5.34 6.596a5.345 5.345 0 005.34 5.34 5.345 5.345 0 005.34-5.34c0-2.626-2.13-6.596-5.34-6.596zm0 8.794a2.201 2.201 0 01-2.198-2.198c0-1.486 1.253-3.455 2.198-3.455.946 0 2.199 1.97 2.199 3.455a2.201 2.201 0 01-2.199 2.198z" mask="url(#a)"/></svg>