<svg width="71" height="108" xmlns="http://www.w3.org/2000/svg"><mask id="a" fill="#fff"><path d="M70.438 33.067l-6.565-14.91V1.585C63.873.43 62.627-.35 61.6.168l-5.998 3.027L49.604.168a1.556 1.556 0 00-1.405 0L42.2 3.195 36.203.168a1.556 1.556 0 00-1.405 0l-5.999 3.027L22.801.168a1.556 1.556 0 00-1.404 0l-5.999 3.027L9.4.168C8.374-.351 7.127.429 7.127 1.585v16.572L.562 33.067a1.602 1.602 0 00-.135.644v72.704c0 .875.703 1.585 1.57 1.585h67.006c.868 0 1.57-.71 1.57-1.585V33.711c0-.222-.045-.44-.135-.644zM10.268 4.15l4.428 2.235c.442.223.963.223 1.405 0l5.998-3.027 5.998 3.027c.442.223.963.223 1.405 0L35.5 3.358l5.998 3.027c.442.223.963.223 1.405 0l5.998-3.027 5.998 3.027c.442.223.963.223 1.405 0l4.428-2.235v12.758H10.268V4.15zm-6.7 76.797H38.3l6.412 5.178-6.413 5.178H3.569V80.947zm40.308-45.651H54.03v69.534H3.568V94.474H38.85c.357 0 .703-.123.981-.348l8.376-6.763c.774-.625.774-1.85 0-2.475l-8.376-6.764a1.563 1.563 0 00-.98-.347H3.567V35.296h32.979c.867 0 1.57-.71 1.57-1.585 0-.876-.703-1.586-1.57-1.586H4.414l5.305-12.047h50.167l-5.304 12.047H43.876c-.868 0-1.57.71-1.57 1.586 0 .875.702 1.585 1.57 1.585zm23.557 69.534h-10.26V34.047l5.13-11.65 5.13 11.65v70.783z"/><path d="M28.8 50.724c-7.101 0-12.878 5.831-12.878 12.998 0 6.55 4.814 10.462 12.877 10.462 8.064 0 12.878-3.911 12.878-10.462 0-7.167-5.777-12.998-12.878-12.998zm0 20.29c-3.637 0-9.737-.948-9.737-7.292 0-5.42 4.368-9.828 9.736-9.828 5.37 0 9.737 4.409 9.737 9.828 0 6.345-6.1 7.292-9.737 7.292zm-6.282-32.971c-3.21 0-5.34 4.007-5.34 6.658 0 2.972 2.395 5.39 5.34 5.39 2.944 0 5.34-2.418 5.34-5.39 0-2.65-2.13-6.658-5.34-6.658zm0 8.877a2.211 2.211 0 01-2.2-2.22c0-1.498 1.254-3.487 2.2-3.487.945 0 2.198 1.988 2.198 3.488 0 1.223-.986 2.219-2.198 2.219zm12.563-8.877c-3.21 0-5.34 4.007-5.34 6.658 0 2.972 2.396 5.39 5.34 5.39s5.34-2.418 5.34-5.39c0-2.65-2.13-6.658-5.34-6.658zm0 8.877a2.211 2.211 0 01-2.199-2.22c0-1.498 1.254-3.487 2.2-3.487.944 0 2.198 1.988 2.198 3.488a2.212 2.212 0 01-2.199 2.219zm10.051-1.268c-3.21 0-5.34 4.007-5.34 6.657 0 2.972 2.396 5.39 5.34 5.39s5.34-2.418 5.34-5.39c0-2.65-2.13-6.657-5.34-6.657zm0 8.877a2.212 2.212 0 01-2.199-2.22c0-1.5 1.254-3.487 2.199-3.487.945 0 2.199 1.988 2.199 3.487 0 1.224-.987 2.22-2.199 2.22zm-32.665-8.877c-3.21 0-5.34 4.007-5.34 6.657 0 2.972 2.395 5.39 5.34 5.39 2.944 0 5.34-2.418 5.34-5.39 0-2.65-2.13-6.657-5.34-6.657zm0 8.877a2.212 2.212 0 01-2.199-2.22c0-1.5 1.253-3.487 2.199-3.487.945 0 2.198 1.988 2.198 3.487 0 1.224-.986 2.22-2.198 2.22zm2.931 43.538h-6.7c-.868 0-1.57.71-1.57 1.585s.702 1.585 1.57 1.585h6.7c.868 0 1.57-.71 1.57-1.585 0-.876-.702-1.585-1.57-1.585zm21.777 0H22.1c-.867 0-1.57.71-1.57 1.585s.703 1.585 1.57 1.585h15.076c.868 0 1.57-.71 1.57-1.585 0-.876-.702-1.585-1.57-1.585zM20.424 84.54H8.698c-.868 0-1.57.71-1.57 1.585 0 .876.702 1.586 1.57 1.586h11.726c.867 0 1.57-.71 1.57-1.585 0-.876-.703-1.586-1.57-1.586zm15.076 0h-8.376c-.867 0-1.57.71-1.57 1.585 0 .876.703 1.586 1.57 1.586H35.5c.867 0 1.57-.71 1.57-1.585 0-.876-.702-1.586-1.57-1.586z"/></mask><path d="M70.438 33.067l-6.565-14.91V1.585C63.873.43 62.627-.35 61.6.168l-5.998 3.027L49.604.168a1.556 1.556 0 00-1.405 0L42.2 3.195 36.203.168a1.556 1.556 0 00-1.405 0l-5.999 3.027L22.801.168a1.556 1.556 0 00-1.404 0l-5.999 3.027L9.4.168C8.374-.351 7.127.429 7.127 1.585v16.572L.562 33.067a1.602 1.602 0 00-.135.644v72.704c0 .875.703 1.585 1.57 1.585h67.006c.868 0 1.57-.71 1.57-1.585V33.711c0-.222-.045-.44-.135-.644zM10.268 4.15l4.428 2.235c.442.223.963.223 1.405 0l5.998-3.027 5.998 3.027c.442.223.963.223 1.405 0L35.5 3.358l5.998 3.027c.442.223.963.223 1.405 0l5.998-3.027 5.998 3.027c.442.223.963.223 1.405 0l4.428-2.235v12.758H10.268V4.15zm-6.7 76.797H38.3l6.412 5.178-6.413 5.178H3.569V80.947zm40.308-45.651H54.03v69.534H3.568V94.474H38.85c.357 0 .703-.123.981-.348l8.376-6.763c.774-.625.774-1.85 0-2.475l-8.376-6.764a1.563 1.563 0 00-.98-.347H3.567V35.296h32.979c.867 0 1.57-.71 1.57-1.585 0-.876-.703-1.586-1.57-1.586H4.414l5.305-12.047h50.167l-5.304 12.047H43.876c-.868 0-1.57.71-1.57 1.586 0 .875.702 1.585 1.57 1.585zm23.557 69.534h-10.26V34.047l5.13-11.65 5.13 11.65v70.783z" fill="#A07B50"/><path d="M28.8 50.724c-7.101 0-12.878 5.831-12.878 12.998 0 6.55 4.814 10.462 12.877 10.462 8.064 0 12.878-3.911 12.878-10.462 0-7.167-5.777-12.998-12.878-12.998zm0 20.29c-3.637 0-9.737-.948-9.737-7.292 0-5.42 4.368-9.828 9.736-9.828 5.37 0 9.737 4.409 9.737 9.828 0 6.345-6.1 7.292-9.737 7.292zm-6.282-32.971c-3.21 0-5.34 4.007-5.34 6.658 0 2.972 2.395 5.39 5.34 5.39 2.944 0 5.34-2.418 5.34-5.39 0-2.65-2.13-6.658-5.34-6.658zm0 8.877a2.211 2.211 0 01-2.2-2.22c0-1.498 1.254-3.487 2.2-3.487.945 0 2.198 1.988 2.198 3.488 0 1.223-.986 2.219-2.198 2.219zm12.563-8.877c-3.21 0-5.34 4.007-5.34 6.658 0 2.972 2.396 5.39 5.34 5.39s5.34-2.418 5.34-5.39c0-2.65-2.13-6.658-5.34-6.658zm0 8.877a2.211 2.211 0 01-2.199-2.22c0-1.498 1.254-3.487 2.2-3.487.944 0 2.198 1.988 2.198 3.488a2.212 2.212 0 01-2.199 2.219zm10.051-1.268c-3.21 0-5.34 4.007-5.34 6.657 0 2.972 2.396 5.39 5.34 5.39s5.34-2.418 5.34-5.39c0-2.65-2.13-6.657-5.34-6.657zm0 8.877a2.212 2.212 0 01-2.199-2.22c0-1.5 1.254-3.487 2.199-3.487.945 0 2.199 1.988 2.199 3.487 0 1.224-.987 2.22-2.199 2.22zm-32.665-8.877c-3.21 0-5.34 4.007-5.34 6.657 0 2.972 2.395 5.39 5.34 5.39 2.944 0 5.34-2.418 5.34-5.39 0-2.65-2.13-6.657-5.34-6.657zm0 8.877a2.212 2.212 0 01-2.199-2.22c0-1.5 1.253-3.487 2.199-3.487.945 0 2.198 1.988 2.198 3.487 0 1.224-.986 2.22-2.198 2.22zm2.931 43.538h-6.7c-.868 0-1.57.71-1.57 1.585s.702 1.585 1.57 1.585h6.7c.868 0 1.57-.71 1.57-1.585 0-.876-.702-1.585-1.57-1.585zm21.777 0H22.1c-.867 0-1.57.71-1.57 1.585s.703 1.585 1.57 1.585h15.076c.868 0 1.57-.71 1.57-1.585 0-.876-.702-1.585-1.57-1.585zM20.424 84.54H8.698c-.868 0-1.57.71-1.57 1.585 0 .876.702 1.586 1.57 1.586h11.726c.867 0 1.57-.71 1.57-1.585 0-.876-.703-1.586-1.57-1.586zm15.076 0h-8.376c-.867 0-1.57.71-1.57 1.585 0 .876.703 1.586 1.57 1.586H35.5c.867 0 1.57-.71 1.57-1.585 0-.876-.702-1.586-1.57-1.586z" fill="#A07B50"/><path d="M70.438 33.067l-6.565-14.91V1.585C63.873.43 62.627-.35 61.6.168l-5.998 3.027L49.604.168a1.556 1.556 0 00-1.405 0L42.2 3.195 36.203.168a1.556 1.556 0 00-1.405 0l-5.999 3.027L22.801.168a1.556 1.556 0 00-1.404 0l-5.999 3.027L9.4.168C8.374-.351 7.127.429 7.127 1.585v16.572L.562 33.067a1.602 1.602 0 00-.135.644v72.704c0 .875.703 1.585 1.57 1.585h67.006c.868 0 1.57-.71 1.57-1.585V33.711c0-.222-.045-.44-.135-.644zM10.268 4.15l4.428 2.235c.442.223.963.223 1.405 0l5.998-3.027 5.998 3.027c.442.223.963.223 1.405 0L35.5 3.358l5.998 3.027c.442.223.963.223 1.405 0l5.998-3.027 5.998 3.027c.442.223.963.223 1.405 0l4.428-2.235v12.758H10.268V4.15zm-6.7 76.797H38.3l6.412 5.178-6.413 5.178H3.569V80.947zm40.308-45.651H54.03v69.534H3.568V94.474H38.85c.357 0 .703-.123.981-.348l8.376-6.763c.774-.625.774-1.85 0-2.475l-8.376-6.764a1.563 1.563 0 00-.98-.347H3.567V35.296h32.979c.867 0 1.57-.71 1.57-1.585 0-.876-.703-1.586-1.57-1.586H4.414l5.305-12.047h50.167l-5.304 12.047H43.876c-.868 0-1.57.71-1.57 1.586 0 .875.702 1.585 1.57 1.585zm23.557 69.534h-10.26V34.047l5.13-11.65 5.13 11.65v70.783z" mask="url(#a)"/><path d="M28.8 50.724c-7.101 0-12.878 5.831-12.878 12.998 0 6.55 4.814 10.462 12.877 10.462 8.064 0 12.878-3.911 12.878-10.462 0-7.167-5.777-12.998-12.878-12.998zm0 20.29c-3.637 0-9.737-.948-9.737-7.292 0-5.42 4.368-9.828 9.736-9.828 5.37 0 9.737 4.409 9.737 9.828 0 6.345-6.1 7.292-9.737 7.292zm-6.282-32.971c-3.21 0-5.34 4.007-5.34 6.658 0 2.972 2.395 5.39 5.34 5.39 2.944 0 5.34-2.418 5.34-5.39 0-2.65-2.13-6.658-5.34-6.658zm0 8.877a2.211 2.211 0 01-2.2-2.22c0-1.498 1.254-3.487 2.2-3.487.945 0 2.198 1.988 2.198 3.488 0 1.223-.986 2.219-2.198 2.219zm12.563-8.877c-3.21 0-5.34 4.007-5.34 6.658 0 2.972 2.396 5.39 5.34 5.39s5.34-2.418 5.34-5.39c0-2.65-2.13-6.658-5.34-6.658zm0 8.877a2.211 2.211 0 01-2.199-2.22c0-1.498 1.254-3.487 2.2-3.487.944 0 2.198 1.988 2.198 3.488a2.212 2.212 0 01-2.199 2.219zm10.051-1.268c-3.21 0-5.34 4.007-5.34 6.657 0 2.972 2.396 5.39 5.34 5.39s5.34-2.418 5.34-5.39c0-2.65-2.13-6.657-5.34-6.657zm0 8.877a2.212 2.212 0 01-2.199-2.22c0-1.5 1.254-3.487 2.199-3.487.945 0 2.199 1.988 2.199 3.487 0 1.224-.987 2.22-2.199 2.22zm-32.665-8.877c-3.21 0-5.34 4.007-5.34 6.657 0 2.972 2.395 5.39 5.34 5.39 2.944 0 5.34-2.418 5.34-5.39 0-2.65-2.13-6.657-5.34-6.657zm0 8.877a2.212 2.212 0 01-2.199-2.22c0-1.5 1.253-3.487 2.199-3.487.945 0 2.198 1.988 2.198 3.487 0 1.224-.986 2.22-2.198 2.22zm2.931 43.538h-6.7c-.868 0-1.57.71-1.57 1.585s.702 1.585 1.57 1.585h6.7c.868 0 1.57-.71 1.57-1.585 0-.876-.702-1.585-1.57-1.585zm21.777 0H22.1c-.867 0-1.57.71-1.57 1.585s.703 1.585 1.57 1.585h15.076c.868 0 1.57-.71 1.57-1.585 0-.876-.702-1.585-1.57-1.585zM20.424 84.54H8.698c-.868 0-1.57.71-1.57 1.585 0 .876.702 1.586 1.57 1.586h11.726c.867 0 1.57-.71 1.57-1.585 0-.876-.703-1.586-1.57-1.586zm15.076 0h-8.376c-.867 0-1.57.71-1.57 1.585 0 .876.703 1.586 1.57 1.586H35.5c.867 0 1.57-.71 1.57-1.585 0-.876-.702-1.586-1.57-1.586z" mask="url(#a)"/></svg>